<svg xmlns="http://www.w3.org/2000/svg" width="525.507" height="121.333" viewBox="0 0 525.507 121.333">
  <g id="logo-beaconscan" transform="translate(-219.378 -213.334)">
    <g id="shape">
      <path id="Path_1" data-name="Path 1" d="M244.6,271.1a5.144,5.144,0,0,1,5.168-5.143l8.568.028a5.151,5.151,0,0,1,5.151,5.151v32.4c.965-.286,2.2-.591,3.559-.911a4.292,4.292,0,0,0,3.309-4.177V258.261a5.152,5.152,0,0,1,5.151-5.152H284.1a5.152,5.152,0,0,1,5.151,5.152v37.3s2.15-.87,4.243-1.754a4.3,4.3,0,0,0,2.625-3.957V245.383a5.151,5.151,0,0,1,5.15-5.151h8.585A5.151,5.151,0,0,1,315,245.383V282c7.443-5.394,14.986-11.882,20.972-19.683a8.646,8.646,0,0,0,1.316-8.072,60.636,60.636,0,1,0-109.855,50.108,7.668,7.668,0,0,0,7.316,3.79c1.624-.143,3.646-.345,6.05-.627a4.29,4.29,0,0,0,3.805-4.258V271.1" fill="#132a47"/>
      <path id="Path_2" data-name="Path 2" d="M244.417,323.061A60.656,60.656,0,0,0,340.756,274c0-1.4-.065-2.778-.158-4.152-22.163,33.055-63.085,48.508-96.181,53.213" fill="#c0d0db"/>
    </g>
    <path id="Path_69" data-name="Path 69" d="M13.608-4.564H4.928L3.276,0H.532L7.84-19.376h2.884L18,0H15.26ZM12.88-6.552,9.268-16.52,5.656-6.552Zm25.9-9.016a6.968,6.968,0,0,1,3.64.952,6.566,6.566,0,0,1,2.506,2.744,9.162,9.162,0,0,1,.91,4.2,9.075,9.075,0,0,1-.91,4.186A6.584,6.584,0,0,1,42.42-.756,6.968,6.968,0,0,1,38.78.2,6.261,6.261,0,0,1,34.986-.938,5.762,5.762,0,0,1,32.844-3.92V7.28H30.3V-15.372h2.548v3.92a5.762,5.762,0,0,1,2.142-2.982A6.261,6.261,0,0,1,38.78-15.568ZM38.052-13.3a5.333,5.333,0,0,0-2.688.686,4.732,4.732,0,0,0-1.876,1.974,6.324,6.324,0,0,0-.672,2.968,6.24,6.24,0,0,0,.672,2.954,4.845,4.845,0,0,0,1.876,1.974,5.25,5.25,0,0,0,2.688.7,4.97,4.97,0,0,0,3.794-1.5,5.776,5.776,0,0,0,1.414-4.13,5.776,5.776,0,0,0-1.414-4.13A4.97,4.97,0,0,0,38.052-13.3Zm15.064,1.036a5.654,5.654,0,0,1,2.212-2.478,6.575,6.575,0,0,1,3.472-.882v2.772h-.784a5.444,5.444,0,0,0-3.528,1.106,4.429,4.429,0,0,0-1.372,3.654V0H50.568V-15.372h2.548Zm16.576-3.3a8.155,8.155,0,0,1,3.962.952A6.813,6.813,0,0,1,76.4-11.872a8.521,8.521,0,0,1,.994,4.2A8.441,8.441,0,0,1,76.4-3.486a6.836,6.836,0,0,1-2.744,2.73A8.155,8.155,0,0,1,69.692.2,8.155,8.155,0,0,1,65.73-.756a6.928,6.928,0,0,1-2.758-2.73,8.347,8.347,0,0,1-1.008-4.186,8.426,8.426,0,0,1,1.008-4.2,6.9,6.9,0,0,1,2.758-2.744A8.155,8.155,0,0,1,69.692-15.568Zm0,2.24a5.326,5.326,0,0,0-2.534.616,4.631,4.631,0,0,0-1.876,1.89,6.366,6.366,0,0,0-.714,3.15,6.3,6.3,0,0,0,.714,3.122,4.631,4.631,0,0,0,1.876,1.89,5.326,5.326,0,0,0,2.534.616,5.326,5.326,0,0,0,2.534-.616A4.631,4.631,0,0,0,74.1-4.55a6.3,6.3,0,0,0,.714-3.122,6.366,6.366,0,0,0-.714-3.15,4.631,4.631,0,0,0-1.876-1.89A5.326,5.326,0,0,0,69.692-13.328Zm18.732-2.24a6.316,6.316,0,0,1,3.794,1.12,5.837,5.837,0,0,1,2.17,3V-20.72h2.548V0H94.388V-3.92a5.837,5.837,0,0,1-2.17,3A6.316,6.316,0,0,1,88.424.2a6.968,6.968,0,0,1-3.64-.952,6.584,6.584,0,0,1-2.506-2.73,9.075,9.075,0,0,1-.91-4.186,9.162,9.162,0,0,1,.91-4.2,6.566,6.566,0,0,1,2.506-2.744A6.968,6.968,0,0,1,88.424-15.568Zm.728,2.268a4.935,4.935,0,0,0-3.766,1.5,5.776,5.776,0,0,0-1.414,4.13,5.776,5.776,0,0,0,1.414,4.13,4.935,4.935,0,0,0,3.766,1.5,5.228,5.228,0,0,0,2.7-.7,4.873,4.873,0,0,0,1.862-1.974,6.24,6.24,0,0,0,.672-2.954,6.324,6.324,0,0,0-.672-2.968,4.759,4.759,0,0,0-1.862-1.974A5.311,5.311,0,0,0,89.152-13.3Zm26.908-2.072V0h-2.548V-3.612a5.17,5.17,0,0,1-2.086,2.87,6.158,6.158,0,0,1-3.486.994,5.7,5.7,0,0,1-4.312-1.722,6.859,6.859,0,0,1-1.652-4.942v-8.96h2.548v8.708A4.963,4.963,0,0,0,105.7-3.122a4.179,4.179,0,0,0,3.192,1.246,4.364,4.364,0,0,0,3.36-1.358,5.625,5.625,0,0,0,1.26-3.962v-8.176Zm12.292-.2A7.481,7.481,0,0,1,133.224-14a6.642,6.642,0,0,1,2.38,4.2h-2.688a3.93,3.93,0,0,0-1.526-2.59,5,5,0,0,0-3.094-.938,4.949,4.949,0,0,0-2.45.616,4.48,4.48,0,0,0-1.778,1.89,6.693,6.693,0,0,0-.672,3.15,6.693,6.693,0,0,0,.672,3.15,4.48,4.48,0,0,0,1.778,1.89,4.949,4.949,0,0,0,2.45.616,4.947,4.947,0,0,0,3.094-.952,3.983,3.983,0,0,0,1.526-2.6H135.6a6.6,6.6,0,0,1-2.38,4.214A7.526,7.526,0,0,1,128.352.2a7.915,7.915,0,0,1-3.92-.952,6.727,6.727,0,0,1-2.674-2.73,8.639,8.639,0,0,1-.966-4.186,8.721,8.721,0,0,1,.966-4.2,6.706,6.706,0,0,1,2.674-2.744A7.915,7.915,0,0,1,128.352-15.568ZM147.672-2.24V0h-1.9a4.889,4.889,0,0,1-3.514-1.12,5.058,5.058,0,0,1-1.162-3.752V-13.16h-2.3v-2.212h2.3v-3.836h2.576v3.836h3.976v2.212h-3.976v8.344a2.874,2.874,0,0,0,.546,2.03,2.628,2.628,0,0,0,1.89.546Zm19.8-13.328a8.155,8.155,0,0,1,3.962.952,6.813,6.813,0,0,1,2.744,2.744,8.521,8.521,0,0,1,.994,4.2,8.441,8.441,0,0,1-.994,4.186,6.836,6.836,0,0,1-2.744,2.73A8.155,8.155,0,0,1,167.468.2a8.155,8.155,0,0,1-3.962-.952,6.928,6.928,0,0,1-2.758-2.73,8.347,8.347,0,0,1-1.008-4.186,8.426,8.426,0,0,1,1.008-4.2,6.9,6.9,0,0,1,2.758-2.744A8.155,8.155,0,0,1,167.468-15.568Zm0,2.24a5.326,5.326,0,0,0-2.534.616,4.631,4.631,0,0,0-1.876,1.89,6.366,6.366,0,0,0-.714,3.15,6.3,6.3,0,0,0,.714,3.122,4.631,4.631,0,0,0,1.876,1.89,5.326,5.326,0,0,0,2.534.616A5.326,5.326,0,0,0,170-2.66a4.631,4.631,0,0,0,1.876-1.89,6.3,6.3,0,0,0,.714-3.122,6.366,6.366,0,0,0-.714-3.15A4.631,4.631,0,0,0,170-12.712,5.326,5.326,0,0,0,167.468-13.328ZM186.7-19.012a4.159,4.159,0,0,0-2.842.7,3.3,3.3,0,0,0-.8,2.52v.42h3.64v2.24h-3.64V0h-2.548V-13.132H178.3v-2.24h2.212v-.616q0-5.516,6.188-5.264Zm16.884,3.024v4.144h6.692v3.612h-6.692v4.4h7.532V0H198.8V-19.8h12.32v3.808Zm20.5,11.872V0h-2.156a6.2,6.2,0,0,1-4.27-1.358q-1.526-1.358-1.526-4.494v-5.74h-2.1v-4.032h2.1V-19.46h4.788v3.836h3.136v4.032H220.92v5.824A1.755,1.755,0,0,0,221.3-4.48a1.807,1.807,0,0,0,1.274.364Zm14-11.676A5.408,5.408,0,0,1,242.354-14a7.188,7.188,0,0,1,1.582,4.928V0h-4.788V-8.512a3.444,3.444,0,0,0-.826-2.45,2.869,2.869,0,0,0-2.2-.882,2.992,2.992,0,0,0-2.31.924,3.737,3.737,0,0,0-.854,2.632V0h-4.788V-20.72h4.788v7.952a5.154,5.154,0,0,1,2-2.212A5.872,5.872,0,0,1,238.084-15.792Zm25.256,7.56a6.605,6.605,0,0,1-.14,1.288H252.364a3.621,3.621,0,0,0,.9,2.534,2.89,2.89,0,0,0,2.072.77,2.832,2.832,0,0,0,1.764-.532,2.484,2.484,0,0,0,.924-1.372h5.068a6.622,6.622,0,0,1-1.344,2.954,7.163,7.163,0,0,1-2.632,2.044A8.334,8.334,0,0,1,255.556.2a8.4,8.4,0,0,1-4.074-.966A6.9,6.9,0,0,1,248.7-3.556a8.644,8.644,0,0,1-1.008-4.256,8.722,8.722,0,0,1,.994-4.27,6.812,6.812,0,0,1,2.786-2.772,8.478,8.478,0,0,1,4.088-.966,8.475,8.475,0,0,1,4.088.952,6.725,6.725,0,0,1,2.73,2.674A7.96,7.96,0,0,1,263.34-8.232ZM258.5-8.96a2.878,2.878,0,0,0-.826-2.31,3.041,3.041,0,0,0-2.114-.77,3.135,3.135,0,0,0-2.184.784,3.282,3.282,0,0,0-.98,2.3Zm13.524-3.724a6.794,6.794,0,0,1,2.31-2.268,5.9,5.9,0,0,1,3.066-.84v5.124h-1.372a4.732,4.732,0,0,0-2.954.812,3.262,3.262,0,0,0-1.05,2.744V0h-4.788V-15.624h4.788ZM286.5-15.82a7.169,7.169,0,0,1,4.746,1.484,6.448,6.448,0,0,1,2.226,3.92h-4.48a2.482,2.482,0,0,0-.882-1.5,2.678,2.678,0,0,0-1.722-.546,1.882,1.882,0,0,0-1.232.35,1.221,1.221,0,0,0-.42.994,1.166,1.166,0,0,0,.77,1.092,12.278,12.278,0,0,0,2.422.728,24.052,24.052,0,0,1,2.94.854,4.85,4.85,0,0,1,1.988,1.414,3.907,3.907,0,0,1,.84,2.632,4.036,4.036,0,0,1-.728,2.38,4.793,4.793,0,0,1-2.1,1.624A8.206,8.206,0,0,1,287.616.2a8.364,8.364,0,0,1-5.068-1.4,5.907,5.907,0,0,1-2.324-4h4.62a2.079,2.079,0,0,0,.854,1.54,3.215,3.215,0,0,0,1.918.532,1.786,1.786,0,0,0,1.232-.378,1.273,1.273,0,0,0,.42-.994,1.2,1.2,0,0,0-.77-1.162,14.158,14.158,0,0,0-2.506-.742,20.039,20.039,0,0,1-2.856-.784A4.715,4.715,0,0,1,281.2-8.554a3.783,3.783,0,0,1-.812-2.562,4.181,4.181,0,0,1,1.6-3.4A6.955,6.955,0,0,1,286.5-15.82Zm18.312,0a7.76,7.76,0,0,1,5.068,1.666,7.387,7.387,0,0,1,2.576,4.578h-5.068a2.674,2.674,0,0,0-.924-1.568,2.735,2.735,0,0,0-1.764-.56,2.559,2.559,0,0,0-2.072.994,4.487,4.487,0,0,0-.812,2.9,4.487,4.487,0,0,0,.812,2.9,2.559,2.559,0,0,0,2.072.994,2.735,2.735,0,0,0,1.764-.56,2.674,2.674,0,0,0,.924-1.568h5.068a7.387,7.387,0,0,1-2.576,4.578A7.76,7.76,0,0,1,304.808.2a8.4,8.4,0,0,1-4.074-.966,6.9,6.9,0,0,1-2.786-2.786,8.644,8.644,0,0,1-1.008-4.256,8.722,8.722,0,0,1,.994-4.27,6.812,6.812,0,0,1,2.786-2.772A8.478,8.478,0,0,1,304.808-15.82Zm17.472,0a5.656,5.656,0,0,1,3.08.812,4.882,4.882,0,0,1,1.9,2.212v-2.828h4.76V0h-4.76V-2.828a4.882,4.882,0,0,1-1.9,2.212A5.656,5.656,0,0,1,322.28.2a6.328,6.328,0,0,1-3.458-.966,6.609,6.609,0,0,1-2.408-2.786,9.656,9.656,0,0,1-.882-4.256,9.634,9.634,0,0,1,.882-4.27,6.625,6.625,0,0,1,2.408-2.772A6.328,6.328,0,0,1,322.28-15.82Zm1.54,4.2a3.225,3.225,0,0,0-2.478,1.008,3.952,3.952,0,0,0-.938,2.8,3.952,3.952,0,0,0,.938,2.8A3.225,3.225,0,0,0,323.82-4,3.237,3.237,0,0,0,326.3-5.04a3.9,3.9,0,0,0,.966-2.772A3.891,3.891,0,0,0,326.3-10.6,3.259,3.259,0,0,0,323.82-11.62Zm22.82-4.172A5.408,5.408,0,0,1,350.91-14a7.188,7.188,0,0,1,1.582,4.928V0H347.7V-8.512a3.444,3.444,0,0,0-.826-2.45,2.869,2.869,0,0,0-2.2-.882,2.992,2.992,0,0,0-2.31.924,3.737,3.737,0,0,0-.854,2.632V0h-4.788V-15.624h4.788v2.856a5.154,5.154,0,0,1,2-2.212A5.872,5.872,0,0,1,346.64-15.792Z" transform="translate(365 318)" fill="#132a47" opacity="0.75"/>
    <path id="Path_68" data-name="Path 68" d="M28.98-21.84a10.623,10.623,0,0,1,6.09,3.72,10.183,10.183,0,0,1,2.25,6.54,10.538,10.538,0,0,1-3.63,8.52Q30.06,0,23.28,0H3.54V-42.42H22.8q6.48,0,10.02,2.82a9.682,9.682,0,0,1,3.54,8.04,9.9,9.9,0,0,1-2.04,6.39A9.4,9.4,0,0,1,28.98-21.84ZM13.8-25.08h6.72q5.34,0,5.34-4.56T20.4-34.2H13.8ZM21.12-8.34q5.7,0,5.7-4.68a4.458,4.458,0,0,0-1.5-3.57,6.341,6.341,0,0,0-4.26-1.29H13.8v9.54Zm53.4-9.3a14.152,14.152,0,0,1-.3,2.76H51q.18,3.78,1.92,5.43A6.192,6.192,0,0,0,57.36-7.8a6.068,6.068,0,0,0,3.78-1.14,5.323,5.323,0,0,0,1.98-2.94H73.98A14.19,14.19,0,0,1,71.1-5.55a15.35,15.35,0,0,1-5.64,4.38A17.858,17.858,0,0,1,57.84.42a17.993,17.993,0,0,1-8.73-2.07,14.791,14.791,0,0,1-5.97-5.97,18.524,18.524,0,0,1-2.16-9.12,18.691,18.691,0,0,1,2.13-9.15,14.6,14.6,0,0,1,5.97-5.94,18.168,18.168,0,0,1,8.76-2.07,18.162,18.162,0,0,1,8.76,2.04,14.412,14.412,0,0,1,5.85,5.73A17.057,17.057,0,0,1,74.52-17.64ZM64.14-19.2a6.168,6.168,0,0,0-1.77-4.95,6.515,6.515,0,0,0-4.53-1.65,6.719,6.719,0,0,0-4.68,1.68,7.033,7.033,0,0,0-2.1,4.92ZM92.58-33.9a12.12,12.12,0,0,1,6.6,1.74,10.46,10.46,0,0,1,4.08,4.74v-6.06h10.2V0h-10.2V-6.06a10.46,10.46,0,0,1-4.08,4.74A12.12,12.12,0,0,1,92.58.42a13.56,13.56,0,0,1-7.41-2.07,14.162,14.162,0,0,1-5.16-5.97,20.69,20.69,0,0,1-1.89-9.12,20.643,20.643,0,0,1,1.89-9.15,14.2,14.2,0,0,1,5.16-5.94A13.56,13.56,0,0,1,92.58-33.9Zm3.3,9a6.911,6.911,0,0,0-5.31,2.16,8.468,8.468,0,0,0-2.01,6,8.468,8.468,0,0,0,2.01,6,6.911,6.911,0,0,0,5.31,2.16,6.936,6.936,0,0,0,5.31-2.22,8.361,8.361,0,0,0,2.07-5.94,8.338,8.338,0,0,0-2.07-5.97A6.983,6.983,0,0,0,95.88-24.9Zm39.78-9a16.628,16.628,0,0,1,10.86,3.57,15.83,15.83,0,0,1,5.52,9.81H141.18a5.729,5.729,0,0,0-1.98-3.36,5.86,5.86,0,0,0-3.78-1.2,5.483,5.483,0,0,0-4.44,2.13q-1.74,2.13-1.74,6.21t1.74,6.21a5.483,5.483,0,0,0,4.44,2.13,5.86,5.86,0,0,0,3.78-1.2,5.729,5.729,0,0,0,1.98-3.36h10.86a15.83,15.83,0,0,1-5.52,9.81A16.628,16.628,0,0,1,135.66.42a17.993,17.993,0,0,1-8.73-2.07,14.791,14.791,0,0,1-5.97-5.97,18.524,18.524,0,0,1-2.16-9.12,18.691,18.691,0,0,1,2.13-9.15,14.6,14.6,0,0,1,5.97-5.94A18.168,18.168,0,0,1,135.66-33.9Zm37.38,0a18.827,18.827,0,0,1,8.91,2.07,15.176,15.176,0,0,1,6.18,5.97,17.929,17.929,0,0,1,2.25,9.12,17.929,17.929,0,0,1-2.25,9.12,15.176,15.176,0,0,1-6.18,5.97A18.827,18.827,0,0,1,173.04.42a19.006,19.006,0,0,1-8.94-2.07,15.128,15.128,0,0,1-6.21-5.97,17.929,17.929,0,0,1-2.25-9.12,17.929,17.929,0,0,1,2.25-9.12,15.128,15.128,0,0,1,6.21-5.97A19.006,19.006,0,0,1,173.04-33.9Zm0,8.88a6.538,6.538,0,0,0-4.95,2.13,8.629,8.629,0,0,0-2.01,6.15q0,4.02,2.01,6.12a6.582,6.582,0,0,0,4.95,2.1,6.487,6.487,0,0,0,4.92-2.1q1.98-2.1,1.98-6.12a8.712,8.712,0,0,0-1.98-6.15A6.444,6.444,0,0,0,173.04-25.02Zm43.92-8.82A11.589,11.589,0,0,1,226.11-30q3.39,3.84,3.39,10.56V0H219.24V-18.24a7.38,7.38,0,0,0-1.77-5.25,6.147,6.147,0,0,0-4.71-1.89,6.411,6.411,0,0,0-4.95,1.98,8.009,8.009,0,0,0-1.83,5.64V0H195.72V-33.48h10.26v6.12a11.044,11.044,0,0,1,4.29-4.74A12.584,12.584,0,0,1,216.96-33.84Zm49.8,21.9a11.7,11.7,0,0,1-1.71,6.18,12.06,12.06,0,0,1-5.04,4.5A17.757,17.757,0,0,1,251.94.42q-7.14,0-11.76-3.48a12.609,12.609,0,0,1-5.04-9.72h10.92A5.764,5.764,0,0,0,247.77-9a5.26,5.26,0,0,0,3.75,1.38,4.352,4.352,0,0,0,3.12-1.08,3.781,3.781,0,0,0,1.14-2.88,3.719,3.719,0,0,0-1.05-2.7,8.233,8.233,0,0,0-2.61-1.77q-1.56-.69-4.32-1.65a53.038,53.038,0,0,1-6.57-2.67,12.1,12.1,0,0,1-4.38-3.84,11.112,11.112,0,0,1-1.83-6.63,11.163,11.163,0,0,1,1.92-6.54,12.2,12.2,0,0,1,5.31-4.23,19.368,19.368,0,0,1,7.77-1.47q7.08,0,11.25,3.36a12.821,12.821,0,0,1,4.71,9.24h-11.1a5.693,5.693,0,0,0-1.53-3.33,4.5,4.5,0,0,0-3.33-1.23,4.291,4.291,0,0,0-2.91.96A3.525,3.525,0,0,0,246-31.26a3.581,3.581,0,0,0,.99,2.55A7.545,7.545,0,0,0,249.48-27q1.5.66,4.32,1.68a47.484,47.484,0,0,1,6.66,2.73,12.74,12.74,0,0,1,4.44,3.93A11.227,11.227,0,0,1,266.76-11.94ZM287.58-33.9a16.628,16.628,0,0,1,10.86,3.57,15.83,15.83,0,0,1,5.52,9.81H293.1a5.729,5.729,0,0,0-1.98-3.36,5.86,5.86,0,0,0-3.78-1.2,5.483,5.483,0,0,0-4.44,2.13q-1.74,2.13-1.74,6.21t1.74,6.21a5.483,5.483,0,0,0,4.44,2.13,5.86,5.86,0,0,0,3.78-1.2,5.729,5.729,0,0,0,1.98-3.36h10.86a15.83,15.83,0,0,1-5.52,9.81A16.628,16.628,0,0,1,287.58.42a17.993,17.993,0,0,1-8.73-2.07,14.791,14.791,0,0,1-5.97-5.97,18.523,18.523,0,0,1-2.16-9.12,18.691,18.691,0,0,1,2.13-9.15,14.6,14.6,0,0,1,5.97-5.94A18.168,18.168,0,0,1,287.58-33.9Zm34.44,0a12.12,12.12,0,0,1,6.6,1.74,10.46,10.46,0,0,1,4.08,4.74v-6.06h10.2V0H332.7V-6.06a10.461,10.461,0,0,1-4.08,4.74,12.12,12.12,0,0,1-6.6,1.74,13.56,13.56,0,0,1-7.41-2.07,14.162,14.162,0,0,1-5.16-5.97,20.69,20.69,0,0,1-1.89-9.12,20.643,20.643,0,0,1,1.89-9.15,14.2,14.2,0,0,1,5.16-5.94A13.56,13.56,0,0,1,322.02-33.9Zm3.3,9a6.911,6.911,0,0,0-5.31,2.16,8.468,8.468,0,0,0-2.01,6,8.468,8.468,0,0,0,2.01,6,6.911,6.911,0,0,0,5.31,2.16,6.936,6.936,0,0,0,5.31-2.22,8.361,8.361,0,0,0,2.07-5.94,8.338,8.338,0,0,0-2.07-5.97A6.983,6.983,0,0,0,325.32-24.9Zm45.9-8.94A11.589,11.589,0,0,1,380.37-30q3.39,3.84,3.39,10.56V0H373.5V-18.24a7.38,7.38,0,0,0-1.77-5.25,6.147,6.147,0,0,0-4.71-1.89,6.411,6.411,0,0,0-4.95,1.98,8.009,8.009,0,0,0-1.83,5.64V0H349.98V-33.48h10.26v6.12a11.044,11.044,0,0,1,4.29-4.74A12.584,12.584,0,0,1,371.22-33.84Z" transform="translate(361.125 274.009)" fill="#132a47"/>
  </g>
</svg>
